<svg version="1.1" id="Layer_1" xmlns="http://www.w3.org/2000/svg" xmlns:xlink="http://www.w3.org/1999/xlink" x="0px" y="0px"
	 width="100%" viewBox="0 0 1024 1024" enable-background="new 0 0 1024 1024" xml:space="preserve">
<path fill="#000000" opacity="1.000000" stroke="none" 
	d="
M574.000122,219.603149 
	C598.999695,219.613464 623.522949,218.939713 647.993713,219.783752 
	C692.046936,221.303223 732.991333,233.047470 768.493469,260.232361 
	C803.846497,287.303070 825.085632,323.267700 834.307617,366.582520 
	C837.964111,383.756714 839.355286,401.188141 838.210938,418.645630 
	C833.982727,483.150818 805.973145,534.253052 751.031982,569.328186 
	C729.328247,583.184082 705.180115,590.969238 679.583374,594.518127 
	C654.391174,598.010803 629.103760,597.254211 603.819946,597.376282 
	C596.357544,597.412292 596.352661,597.405212 596.351685,604.640808 
	C596.342957,670.473083 596.336792,736.305359 596.327454,802.137634 
	C596.326477,809.325989 596.319092,809.338196 589.338013,809.338684 
	C557.671875,809.340942 525.976746,810.210632 494.345093,809.165222 
	C408.093994,806.314575 333.844025,775.833984 275.379456,710.905029 
	C238.929901,670.425293 216.691360,622.854858 206.825348,569.428589 
	C202.057693,543.610840 201.020874,517.426819 202.917725,491.389099 
	C206.935394,436.238953 223.391098,385.143707 256.287628,340.046936 
	C288.551788,295.817139 329.784027,262.840729 380.272186,241.462967 
	C405.565613,230.753189 431.915466,224.214645 459.086853,220.785370 
	C469.343689,219.490845 479.676392,219.556122 490.001740,219.574753 
	C517.834412,219.624939 545.667297,219.598923 574.000122,219.603149 
M466.831146,309.428528 
	C465.535583,309.726074 464.250122,310.080078 462.943024,310.312927 
	C420.738831,317.832886 384.811981,337.587524 354.853485,367.734924 
	C321.320160,401.479614 302.556946,442.557373 297.108734,489.894806 
	C294.844421,509.568481 295.270264,529.091675 298.704956,548.444702 
	C307.619965,598.677063 331.289581,640.655945 370.733032,673.296387 
	C407.544830,703.758911 450.064545,719.297729 497.783173,720.621094 
	C505.672668,720.839905 505.700134,720.647461 505.700409,712.736328 
	C505.702301,656.904846 505.692230,601.073425 505.690216,545.241943 
	C505.687408,468.244537 505.692413,391.247131 505.680420,314.249725 
	C505.679382,307.482849 504.043793,305.767456 497.959290,306.516876 
	C487.900055,307.755981 477.699341,307.460114 466.831146,309.428528 
M702.052429,323.478210 
	C688.974854,315.454956 674.822144,310.501648 659.642395,308.269318 
	C640.098206,305.395172 620.440979,306.730774 600.827942,306.355499 
	C597.235901,306.286774 596.313049,308.008698 596.315430,311.270416 
	C596.363098,375.400879 596.375488,439.531403 596.280640,503.661774 
	C596.274597,507.763580 597.975464,508.756531 601.680359,508.712555 
	C613.671936,508.570190 625.666748,508.588806 637.659241,508.680756 
	C649.184998,508.769104 660.518494,507.376923 671.707336,504.688690 
	C729.187195,490.878387 755.976196,444.601013 747.283386,389.557037 
	C742.777222,361.023438 726.873413,339.429718 702.052429,323.478210 
z"/>
</svg>